<?xml version="1.0" standalone="no"?>
<!DOCTYPE svg PUBLIC "-//W3C//DTD SVG 20010904//EN"
 "http://www.w3.org/TR/2001/REC-SVG-20010904/DTD/svg10.dtd">
<svg version="1.0" xmlns="http://www.w3.org/2000/svg"
 width="512.000000pt" height="512.000000pt" viewBox="0 0 512.000000 512.000000"
 preserveAspectRatio="xMidYMid meet">

<g transform="translate(0.000000,512.000000) scale(0.100000,-0.100000)"
fill="#000000" stroke="none">
<path d="M1386 4544 c-352 -64 -673 -292 -835 -594 -223 -417 -158 -1000 166
-1490 186 -282 461 -607 894 -1060 230 -240 768 -762 833 -807 31 -22 52 -28
105 -31 58 -3 72 1 113 25 98 58 795 745 1124 1108 580 639 808 1001 889 1415
23 115 31 356 16 460 -55 372 -269 675 -604 851 -178 93 -363 139 -561 139
-337 0 -618 -118 -882 -372 l-84 -80 -101 96 c-204 194 -434 310 -684 346 -99
14 -296 11 -389 -6z m304 -415 c47 -5 119 -21 160 -35 133 -45 200 -92 395
-284 100 -99 199 -187 222 -199 56 -28 130 -28 186 0 23 12 118 96 212 188
186 183 198 193 301 245 302 151 678 92 915 -145 216 -216 253 -547 105 -940
-123 -329 -559 -851 -1408 -1687 -113 -111 -211 -202 -217 -202 -14 0 -360
338 -611 595 -491 504 -818 901 -958 1165 -51 94 -106 254 -128 368 -23 117
-23 295 0 387 81 316 361 531 721 554 11 0 59 -4 105 -10z"/>
</g>
</svg>
