<?xml version="1.0" standalone="no"?>
<!DOCTYPE svg PUBLIC "-//W3C//DTD SVG 20010904//EN"
 "http://www.w3.org/TR/2001/REC-SVG-20010904/DTD/svg10.dtd">
<svg version="1.0" xmlns="http://www.w3.org/2000/svg"
 width="512.000000pt" height="512.000000pt" viewBox="0 0 512.000000 512.000000"
 preserveAspectRatio="xMidYMid meet">

<g transform="translate(0.000000,512.000000) scale(0.100000,-0.100000)"
fill="#000000" stroke="none">
<path d="M1451 4455 c-101 -18 -265 -72 -353 -116 -233 -116 -444 -324 -558
-549 -150 -299 -176 -655 -71 -977 36 -110 106 -252 174 -353 71 -104 1696
-1735 1771 -1777 46 -25 60 -28 146 -28 86 0 100 3 146 28 75 42 1700 1673
1772 1778 61 91 130 227 166 327 94 264 94 591 0 854 -146 409 -497 710 -938
806 -102 22 -377 24 -481 3 -226 -45 -472 -169 -622 -313 l-42 -41 -61 56
c-139 126 -335 229 -527 279 -102 26 -140 30 -278 34 -112 2 -185 -1 -244 -11z"/>
</g>
</svg>
